<mxfile host="app.diagrams.net" modified="2021-04-30T05:34:28.537Z" agent="5.0 (Macintosh; Intel Mac OS X 10_14_2) AppleWebKit/537.36 (KHTML, like Gecko) Chrome/90.0.4430.93 Safari/537.36" etag="l97g-3bJWJEncNzPCM-c" version="14.6.6" type="github">
  <diagram id="x2GGqh8nmgSfw9A8hSw9" name="Page-1">
    <mxGraphModel dx="2372" dy="1260" grid="1" gridSize="10" guides="1" tooltips="1" connect="1" arrows="1" fold="1" page="1" pageScale="1" pageWidth="827" pageHeight="1169" math="0" shadow="0">
      <root>
        <mxCell id="0" />
        <mxCell id="1" parent="0" />
        <mxCell id="qcW9sYDhVfVx4ufNbn1A-1" value="" style="edgeStyle=orthogonalEdgeStyle;rounded=0;orthogonalLoop=1;jettySize=auto;html=1;entryX=0.5;entryY=0;entryDx=0;entryDy=0;strokeColor=#736CA8;fontColor=#1A1A1A;" edge="1" parent="1" source="qcW9sYDhVfVx4ufNbn1A-2" target="qcW9sYDhVfVx4ufNbn1A-11">
          <mxGeometry relative="1" as="geometry" />
        </mxCell>
        <mxCell id="qcW9sYDhVfVx4ufNbn1A-2" value="&lt;font style=&quot;vertical-align: inherit&quot;&gt;&lt;font style=&quot;vertical-align: inherit&quot;&gt;&lt;font style=&quot;vertical-align: inherit&quot;&gt;&lt;font style=&quot;vertical-align: inherit&quot;&gt;&lt;font style=&quot;vertical-align: inherit&quot;&gt;&lt;font style=&quot;vertical-align: inherit&quot;&gt;数据&lt;/font&gt;&lt;/font&gt;&lt;font style=&quot;vertical-align: inherit&quot;&gt;&lt;font style=&quot;vertical-align: inherit&quot;&gt;抽取&lt;/font&gt;&lt;/font&gt;&lt;/font&gt;&lt;/font&gt;&lt;/font&gt;&lt;/font&gt;" style="rounded=1;whiteSpace=wrap;html=1;absoluteArcSize=1;arcSize=14;strokeWidth=2;fillColor=#5D7F99;strokeColor=#D0CEE2;fontColor=#1A1A1A;" vertex="1" parent="1">
          <mxGeometry x="376" y="300" width="100" height="60" as="geometry" />
        </mxCell>
        <mxCell id="qcW9sYDhVfVx4ufNbn1A-3" style="edgeStyle=none;rounded=1;sketch=0;orthogonalLoop=1;jettySize=auto;html=1;fontColor=#1A1A1A;strokeColor=#736CA8;" edge="1" parent="1" source="qcW9sYDhVfVx4ufNbn1A-4" target="qcW9sYDhVfVx4ufNbn1A-2">
          <mxGeometry relative="1" as="geometry" />
        </mxCell>
        <mxCell id="qcW9sYDhVfVx4ufNbn1A-4" value="&lt;font style=&quot;vertical-align: inherit&quot;&gt;&lt;font style=&quot;vertical-align: inherit&quot;&gt;汇聚接入中心库&lt;/font&gt;&lt;/font&gt;" style="strokeWidth=2;html=1;shape=mxgraph.flowchart.database;whiteSpace=wrap;fillColor=#5D7F99;strokeColor=#D0CEE2;fontColor=#1A1A1A;" vertex="1" parent="1">
          <mxGeometry x="160" y="290" width="60" height="80" as="geometry" />
        </mxCell>
        <mxCell id="qcW9sYDhVfVx4ufNbn1A-5" style="edgeStyle=none;rounded=1;sketch=0;orthogonalLoop=1;jettySize=auto;html=1;entryX=0;entryY=0.5;entryDx=0;entryDy=0;fontColor=#1A1A1A;strokeColor=#736CA8;" edge="1" parent="1" source="qcW9sYDhVfVx4ufNbn1A-6" target="qcW9sYDhVfVx4ufNbn1A-2">
          <mxGeometry relative="1" as="geometry" />
        </mxCell>
        <mxCell id="qcW9sYDhVfVx4ufNbn1A-6" value="&lt;font style=&quot;vertical-align: inherit&quot;&gt;&lt;font style=&quot;vertical-align: inherit&quot;&gt;文件存储&lt;/font&gt;&lt;/font&gt;" style="strokeWidth=2;html=1;shape=mxgraph.flowchart.multi-document;whiteSpace=wrap;fillColor=#5D7F99;strokeColor=#D0CEE2;fontColor=#1A1A1A;" vertex="1" parent="1">
          <mxGeometry x="146" y="410" width="88" height="60" as="geometry" />
        </mxCell>
        <mxCell id="qcW9sYDhVfVx4ufNbn1A-7" value="" style="edgeStyle=orthogonalEdgeStyle;rounded=0;orthogonalLoop=1;jettySize=auto;html=1;strokeColor=#736CA8;fontColor=#1A1A1A;" edge="1" parent="1" source="qcW9sYDhVfVx4ufNbn1A-8" target="qcW9sYDhVfVx4ufNbn1A-13">
          <mxGeometry relative="1" as="geometry" />
        </mxCell>
        <mxCell id="qcW9sYDhVfVx4ufNbn1A-8" value="&lt;span&gt;&lt;font style=&quot;vertical-align: inherit&quot;&gt;&lt;font style=&quot;vertical-align: inherit&quot;&gt;调度触发&lt;/font&gt;&lt;/font&gt;&lt;/span&gt;" style="strokeWidth=2;html=1;shape=mxgraph.flowchart.start_1;whiteSpace=wrap;fillColor=#5D7F99;strokeColor=#D0CEE2;fontColor=#1A1A1A;" vertex="1" parent="1">
          <mxGeometry x="376" y="120" width="100" height="60" as="geometry" />
        </mxCell>
        <mxCell id="qcW9sYDhVfVx4ufNbn1A-9" value="" style="edgeStyle=orthogonalEdgeStyle;rounded=0;orthogonalLoop=1;jettySize=auto;html=1;strokeColor=#736CA8;fontColor=#1A1A1A;" edge="1" parent="1" source="qcW9sYDhVfVx4ufNbn1A-11" target="qcW9sYDhVfVx4ufNbn1A-17">
          <mxGeometry relative="1" as="geometry" />
        </mxCell>
        <mxCell id="qcW9sYDhVfVx4ufNbn1A-11" value="&lt;font style=&quot;vertical-align: inherit&quot;&gt;&lt;font style=&quot;vertical-align: inherit&quot;&gt;&lt;font style=&quot;vertical-align: inherit&quot;&gt;&lt;font style=&quot;vertical-align: inherit&quot;&gt;&lt;font style=&quot;vertical-align: inherit&quot;&gt;&lt;font style=&quot;vertical-align: inherit&quot;&gt;&lt;font style=&quot;vertical-align: inherit&quot;&gt;&lt;font style=&quot;vertical-align: inherit&quot;&gt;引擎调度完成处理&lt;/font&gt;&lt;/font&gt;&lt;/font&gt;&lt;/font&gt;&lt;/font&gt;&lt;/font&gt;&lt;/font&gt;&lt;/font&gt;" style="rounded=1;whiteSpace=wrap;html=1;absoluteArcSize=1;arcSize=14;strokeWidth=2;fillColor=#5D7F99;strokeColor=#D0CEE2;fontColor=#1A1A1A;" vertex="1" parent="1">
          <mxGeometry x="376" y="390" width="100" height="60" as="geometry" />
        </mxCell>
        <mxCell id="qcW9sYDhVfVx4ufNbn1A-12" value="" style="edgeStyle=orthogonalEdgeStyle;rounded=0;orthogonalLoop=1;jettySize=auto;html=1;strokeColor=#736CA8;fontColor=#1A1A1A;" edge="1" parent="1" source="qcW9sYDhVfVx4ufNbn1A-13" target="qcW9sYDhVfVx4ufNbn1A-2">
          <mxGeometry relative="1" as="geometry" />
        </mxCell>
        <mxCell id="qcW9sYDhVfVx4ufNbn1A-13" value="&lt;font style=&quot;vertical-align: inherit&quot;&gt;&lt;font style=&quot;vertical-align: inherit&quot;&gt;执行任务流程&lt;/font&gt;&lt;/font&gt;" style="rounded=1;whiteSpace=wrap;html=1;absoluteArcSize=1;arcSize=14;strokeWidth=2;fillColor=#5D7F99;strokeColor=#D0CEE2;fontColor=#1A1A1A;" vertex="1" parent="1">
          <mxGeometry x="376" y="210" width="100" height="60" as="geometry" />
        </mxCell>
        <mxCell id="qcW9sYDhVfVx4ufNbn1A-16" style="edgeStyle=orthogonalEdgeStyle;rounded=0;orthogonalLoop=1;jettySize=auto;html=1;entryX=1;entryY=0.5;entryDx=0;entryDy=0;entryPerimeter=0;strokeColor=#736CA8;fontColor=#1A1A1A;" edge="1" parent="1" source="qcW9sYDhVfVx4ufNbn1A-17" target="qcW9sYDhVfVx4ufNbn1A-26">
          <mxGeometry relative="1" as="geometry">
            <Array as="points">
              <mxPoint x="696" y="420" />
              <mxPoint x="696" y="540" />
            </Array>
          </mxGeometry>
        </mxCell>
        <mxCell id="qcW9sYDhVfVx4ufNbn1A-17" value="&lt;font style=&quot;vertical-align: inherit&quot;&gt;&lt;font style=&quot;vertical-align: inherit&quot;&gt;&lt;font style=&quot;vertical-align: inherit&quot;&gt;&lt;font style=&quot;vertical-align: inherit&quot;&gt;&lt;font style=&quot;vertical-align: inherit&quot;&gt;&lt;font style=&quot;vertical-align: inherit&quot;&gt;&lt;font style=&quot;vertical-align: inherit&quot;&gt;&lt;font style=&quot;vertical-align: inherit&quot;&gt;&lt;font style=&quot;vertical-align: inherit&quot;&gt;&lt;font style=&quot;vertical-align: inherit&quot;&gt;&lt;font style=&quot;vertical-align: inherit&quot;&gt;&lt;font style=&quot;vertical-align: inherit&quot;&gt;&lt;font style=&quot;vertical-align: inherit&quot;&gt;&lt;font style=&quot;vertical-align: inherit&quot;&gt;&lt;font style=&quot;vertical-align: inherit&quot;&gt;&lt;font style=&quot;vertical-align: inherit&quot;&gt;核心引擎&lt;br&gt;（依据业务需求启动不同引擎处理完成）&lt;/font&gt;&lt;/font&gt;&lt;/font&gt;&lt;/font&gt;&lt;/font&gt;&lt;/font&gt;&lt;/font&gt;&lt;/font&gt;&lt;br&gt;&lt;/font&gt;&lt;/font&gt;&lt;/font&gt;&lt;/font&gt;&lt;/font&gt;&lt;/font&gt;&lt;/font&gt;&lt;/font&gt;" style="rounded=1;whiteSpace=wrap;html=1;absoluteArcSize=1;arcSize=14;strokeWidth=2;fillColor=#5D7F99;strokeColor=#D0CEE2;fontColor=#1A1A1A;" vertex="1" parent="1">
          <mxGeometry x="546" y="390" width="100" height="60" as="geometry" />
        </mxCell>
        <mxCell id="qcW9sYDhVfVx4ufNbn1A-22" style="edgeStyle=orthogonalEdgeStyle;rounded=0;orthogonalLoop=1;jettySize=auto;html=1;exitX=0.5;exitY=1;exitDx=0;exitDy=0;exitPerimeter=0;entryX=0.5;entryY=0;entryDx=0;entryDy=0;strokeColor=#736CA8;fontColor=#1A1A1A;" edge="1" parent="1" source="qcW9sYDhVfVx4ufNbn1A-26" target="qcW9sYDhVfVx4ufNbn1A-30">
          <mxGeometry relative="1" as="geometry">
            <mxPoint x="426" y="610" as="sourcePoint" />
          </mxGeometry>
        </mxCell>
        <mxCell id="qcW9sYDhVfVx4ufNbn1A-69" value="是" style="edgeLabel;html=1;align=center;verticalAlign=middle;resizable=0;points=[];fontColor=#1A1A1A;" vertex="1" connectable="0" parent="qcW9sYDhVfVx4ufNbn1A-22">
          <mxGeometry x="-0.4" y="-1" relative="1" as="geometry">
            <mxPoint as="offset" />
          </mxGeometry>
        </mxCell>
        <mxCell id="qcW9sYDhVfVx4ufNbn1A-24" style="edgeStyle=orthogonalEdgeStyle;rounded=0;orthogonalLoop=1;jettySize=auto;html=1;entryX=0;entryY=0.5;entryDx=0;entryDy=0;exitX=0;exitY=0.5;exitDx=0;exitDy=0;exitPerimeter=0;strokeColor=#736CA8;fontColor=#1A1A1A;" edge="1" parent="1" source="qcW9sYDhVfVx4ufNbn1A-26" target="qcW9sYDhVfVx4ufNbn1A-11">
          <mxGeometry relative="1" as="geometry" />
        </mxCell>
        <mxCell id="qcW9sYDhVfVx4ufNbn1A-25" value="&lt;font style=&quot;vertical-align: inherit&quot;&gt;&lt;font style=&quot;vertical-align: inherit&quot;&gt;否&lt;/font&gt;&lt;/font&gt;" style="edgeLabel;html=1;align=center;verticalAlign=middle;resizable=0;points=[];fontColor=#1A1A1A;" vertex="1" connectable="0" parent="qcW9sYDhVfVx4ufNbn1A-24">
          <mxGeometry x="-0.0625" relative="1" as="geometry">
            <mxPoint as="offset" />
          </mxGeometry>
        </mxCell>
        <mxCell id="qcW9sYDhVfVx4ufNbn1A-26" value="&lt;font style=&quot;vertical-align: inherit&quot;&gt;&lt;font style=&quot;vertical-align: inherit&quot;&gt;&lt;font style=&quot;vertical-align: inherit&quot;&gt;&lt;font style=&quot;vertical-align: inherit&quot;&gt;&lt;font style=&quot;vertical-align: inherit&quot;&gt;&lt;font style=&quot;vertical-align: inherit&quot;&gt;&lt;font style=&quot;vertical-align: inherit&quot;&gt;&lt;font style=&quot;vertical-align: inherit&quot;&gt;&lt;font style=&quot;vertical-align: inherit&quot;&gt;&lt;font style=&quot;vertical-align: inherit&quot;&gt;完成所有&lt;/font&gt;&lt;/font&gt;&lt;br&gt;&lt;font style=&quot;vertical-align: inherit&quot;&gt;&lt;font style=&quot;vertical-align: inherit&quot;&gt;数据处理&lt;/font&gt;&lt;/font&gt;&lt;/font&gt;&lt;/font&gt;&lt;/font&gt;&lt;/font&gt;&lt;/font&gt;&lt;/font&gt;&lt;/font&gt;&lt;/font&gt;" style="strokeWidth=2;html=1;shape=mxgraph.flowchart.decision;whiteSpace=wrap;fillColor=#5D7F99;strokeColor=#D0CEE2;fontColor=#1A1A1A;" vertex="1" parent="1">
          <mxGeometry x="376" y="490" width="100" height="100" as="geometry" />
        </mxCell>
        <mxCell id="qcW9sYDhVfVx4ufNbn1A-27" style="edgeStyle=orthogonalEdgeStyle;rounded=1;sketch=0;orthogonalLoop=1;jettySize=auto;html=1;entryX=0.5;entryY=0.88;entryDx=0;entryDy=0;entryPerimeter=0;fontColor=#1A1A1A;strokeColor=#736CA8;" edge="1" parent="1" source="qcW9sYDhVfVx4ufNbn1A-29" target="qcW9sYDhVfVx4ufNbn1A-6">
          <mxGeometry relative="1" as="geometry" />
        </mxCell>
        <mxCell id="qcW9sYDhVfVx4ufNbn1A-28" style="edgeStyle=orthogonalEdgeStyle;rounded=1;sketch=0;orthogonalLoop=1;jettySize=auto;html=1;entryX=0;entryY=0.5;entryDx=0;entryDy=0;entryPerimeter=0;fontColor=#1A1A1A;strokeColor=#736CA8;" edge="1" parent="1" source="qcW9sYDhVfVx4ufNbn1A-29" target="qcW9sYDhVfVx4ufNbn1A-4">
          <mxGeometry relative="1" as="geometry" />
        </mxCell>
        <mxCell id="qcW9sYDhVfVx4ufNbn1A-29" value="&lt;font style=&quot;vertical-align: inherit&quot;&gt;&lt;font style=&quot;vertical-align: inherit&quot;&gt;数据回填&lt;/font&gt;&lt;/font&gt;" style="strokeWidth=2;html=1;shape=mxgraph.flowchart.terminator;whiteSpace=wrap;fillColor=#5D7F99;strokeColor=#D0CEE2;fontColor=#1A1A1A;" vertex="1" parent="1">
          <mxGeometry x="376" y="820" width="100" height="60" as="geometry" />
        </mxCell>
        <mxCell id="qcW9sYDhVfVx4ufNbn1A-67" value="" style="edgeStyle=orthogonalEdgeStyle;curved=0;rounded=1;sketch=0;orthogonalLoop=1;jettySize=auto;html=1;fontColor=#1A1A1A;strokeColor=#736CA8;" edge="1" parent="1" source="qcW9sYDhVfVx4ufNbn1A-30" target="qcW9sYDhVfVx4ufNbn1A-31">
          <mxGeometry relative="1" as="geometry" />
        </mxCell>
        <mxCell id="qcW9sYDhVfVx4ufNbn1A-30" value="&lt;font style=&quot;vertical-align: inherit&quot;&gt;&lt;font style=&quot;vertical-align: inherit&quot;&gt;&lt;font style=&quot;vertical-align: inherit&quot;&gt;&lt;font style=&quot;vertical-align: inherit&quot;&gt;数据持久化&lt;/font&gt;&lt;/font&gt;&lt;/font&gt;&lt;/font&gt;" style="rounded=1;whiteSpace=wrap;html=1;absoluteArcSize=1;arcSize=14;strokeWidth=2;fillColor=#5D7F99;strokeColor=#D0CEE2;fontColor=#1A1A1A;" vertex="1" parent="1">
          <mxGeometry x="376" y="640" width="100" height="60" as="geometry" />
        </mxCell>
        <mxCell id="qcW9sYDhVfVx4ufNbn1A-68" style="edgeStyle=orthogonalEdgeStyle;curved=0;rounded=1;sketch=0;orthogonalLoop=1;jettySize=auto;html=1;entryX=0.5;entryY=0;entryDx=0;entryDy=0;entryPerimeter=0;fontColor=#1A1A1A;strokeColor=#736CA8;exitX=0.5;exitY=1;exitDx=0;exitDy=0;" edge="1" parent="1" source="qcW9sYDhVfVx4ufNbn1A-31" target="qcW9sYDhVfVx4ufNbn1A-29">
          <mxGeometry relative="1" as="geometry" />
        </mxCell>
        <mxCell id="qcW9sYDhVfVx4ufNbn1A-31" value="&lt;font style=&quot;vertical-align: inherit&quot;&gt;&lt;font style=&quot;vertical-align: inherit&quot;&gt;ES索引优化&lt;/font&gt;&lt;/font&gt;" style="rounded=1;whiteSpace=wrap;html=1;absoluteArcSize=1;arcSize=14;strokeWidth=2;fillColor=#5D7F99;strokeColor=#D0CEE2;fontColor=#1A1A1A;" vertex="1" parent="1">
          <mxGeometry x="376" y="730" width="100" height="60" as="geometry" />
        </mxCell>
        <mxCell id="qcW9sYDhVfVx4ufNbn1A-39" value="" style="edgeStyle=orthogonalEdgeStyle;curved=0;rounded=1;sketch=0;orthogonalLoop=1;jettySize=auto;html=1;fontColor=#1A1A1A;strokeColor=#736CA8;" edge="1" parent="1" source="qcW9sYDhVfVx4ufNbn1A-34" target="qcW9sYDhVfVx4ufNbn1A-36">
          <mxGeometry relative="1" as="geometry" />
        </mxCell>
        <mxCell id="qcW9sYDhVfVx4ufNbn1A-34" value="调度触发" style="strokeWidth=2;html=1;shape=mxgraph.flowchart.start_1;whiteSpace=wrap;fillColor=#5D7F99;strokeColor=#D0CEE2;fontColor=#1A1A1A;" vertex="1" parent="1">
          <mxGeometry x="420" y="1360" width="100" height="60" as="geometry" />
        </mxCell>
        <mxCell id="qcW9sYDhVfVx4ufNbn1A-40" value="" style="edgeStyle=orthogonalEdgeStyle;curved=0;rounded=1;sketch=0;orthogonalLoop=1;jettySize=auto;html=1;fontColor=#1A1A1A;strokeColor=#736CA8;" edge="1" parent="1" source="qcW9sYDhVfVx4ufNbn1A-36" target="qcW9sYDhVfVx4ufNbn1A-38">
          <mxGeometry relative="1" as="geometry" />
        </mxCell>
        <mxCell id="qcW9sYDhVfVx4ufNbn1A-36" value="执行数据上报流程" style="rounded=1;whiteSpace=wrap;html=1;absoluteArcSize=1;arcSize=14;strokeWidth=2;fillColor=#5D7F99;strokeColor=#D0CEE2;fontColor=#1A1A1A;" vertex="1" parent="1">
          <mxGeometry x="420" y="1450" width="100" height="60" as="geometry" />
        </mxCell>
        <mxCell id="qcW9sYDhVfVx4ufNbn1A-59" style="edgeStyle=orthogonalEdgeStyle;curved=0;rounded=1;sketch=0;orthogonalLoop=1;jettySize=auto;html=1;fontColor=#1A1A1A;strokeColor=#736CA8;" edge="1" parent="1" source="qcW9sYDhVfVx4ufNbn1A-37" target="qcW9sYDhVfVx4ufNbn1A-38">
          <mxGeometry relative="1" as="geometry" />
        </mxCell>
        <mxCell id="qcW9sYDhVfVx4ufNbn1A-37" value="数据DB" style="strokeWidth=2;html=1;shape=mxgraph.flowchart.database;whiteSpace=wrap;fillColor=#5D7F99;strokeColor=#D0CEE2;fontColor=#1A1A1A;" vertex="1" parent="1">
          <mxGeometry x="230" y="1540" width="60" height="60" as="geometry" />
        </mxCell>
        <mxCell id="qcW9sYDhVfVx4ufNbn1A-43" value="" style="edgeStyle=orthogonalEdgeStyle;curved=0;rounded=1;sketch=0;orthogonalLoop=1;jettySize=auto;html=1;fontColor=#1A1A1A;strokeColor=#736CA8;" edge="1" parent="1" source="qcW9sYDhVfVx4ufNbn1A-38" target="qcW9sYDhVfVx4ufNbn1A-42">
          <mxGeometry relative="1" as="geometry" />
        </mxCell>
        <mxCell id="qcW9sYDhVfVx4ufNbn1A-38" value="抽取数据" style="rounded=1;whiteSpace=wrap;html=1;absoluteArcSize=1;arcSize=14;strokeWidth=2;fillColor=#5D7F99;strokeColor=#D0CEE2;fontColor=#1A1A1A;" vertex="1" parent="1">
          <mxGeometry x="420" y="1540" width="100" height="60" as="geometry" />
        </mxCell>
        <mxCell id="qcW9sYDhVfVx4ufNbn1A-45" value="" style="edgeStyle=orthogonalEdgeStyle;curved=0;rounded=1;sketch=0;orthogonalLoop=1;jettySize=auto;html=1;fontColor=#1A1A1A;strokeColor=#736CA8;" edge="1" parent="1" source="qcW9sYDhVfVx4ufNbn1A-42" target="qcW9sYDhVfVx4ufNbn1A-44">
          <mxGeometry relative="1" as="geometry" />
        </mxCell>
        <mxCell id="qcW9sYDhVfVx4ufNbn1A-42" value="进行上报" style="rounded=1;whiteSpace=wrap;html=1;absoluteArcSize=1;arcSize=14;strokeWidth=2;fillColor=#5D7F99;strokeColor=#D0CEE2;fontColor=#1A1A1A;" vertex="1" parent="1">
          <mxGeometry x="420" y="1680" width="100" height="60" as="geometry" />
        </mxCell>
        <mxCell id="qcW9sYDhVfVx4ufNbn1A-47" value="" style="edgeStyle=orthogonalEdgeStyle;curved=0;rounded=1;sketch=0;orthogonalLoop=1;jettySize=auto;html=1;fontColor=#1A1A1A;strokeColor=#736CA8;entryX=0.5;entryY=1;entryDx=0;entryDy=0;" edge="1" parent="1" source="qcW9sYDhVfVx4ufNbn1A-44" target="qcW9sYDhVfVx4ufNbn1A-51">
          <mxGeometry relative="1" as="geometry">
            <mxPoint x="470" y="1980" as="targetPoint" />
          </mxGeometry>
        </mxCell>
        <mxCell id="qcW9sYDhVfVx4ufNbn1A-50" value="成功" style="edgeLabel;html=1;align=center;verticalAlign=middle;resizable=0;points=[];fontColor=#1A1A1A;" vertex="1" connectable="0" parent="qcW9sYDhVfVx4ufNbn1A-47">
          <mxGeometry x="-0.2593" relative="1" as="geometry">
            <mxPoint as="offset" />
          </mxGeometry>
        </mxCell>
        <mxCell id="qcW9sYDhVfVx4ufNbn1A-48" style="edgeStyle=orthogonalEdgeStyle;curved=0;rounded=1;sketch=0;orthogonalLoop=1;jettySize=auto;html=1;fontColor=#1A1A1A;strokeColor=#736CA8;exitX=1;exitY=0.5;exitDx=0;exitDy=0;" edge="1" parent="1" source="qcW9sYDhVfVx4ufNbn1A-44">
          <mxGeometry relative="1" as="geometry">
            <mxPoint x="520" y="1710" as="targetPoint" />
            <Array as="points">
              <mxPoint x="570" y="1850" />
              <mxPoint x="570" y="1710" />
            </Array>
          </mxGeometry>
        </mxCell>
        <mxCell id="qcW9sYDhVfVx4ufNbn1A-49" value="失败" style="edgeLabel;html=1;align=center;verticalAlign=middle;resizable=0;points=[];fontColor=#1A1A1A;" vertex="1" connectable="0" parent="qcW9sYDhVfVx4ufNbn1A-48">
          <mxGeometry x="0.2895" relative="1" as="geometry">
            <mxPoint as="offset" />
          </mxGeometry>
        </mxCell>
        <mxCell id="qcW9sYDhVfVx4ufNbn1A-62" style="edgeStyle=orthogonalEdgeStyle;curved=0;rounded=1;sketch=0;orthogonalLoop=1;jettySize=auto;html=1;fontColor=#1A1A1A;strokeColor=#736CA8;entryX=0.5;entryY=1;entryDx=0;entryDy=0;" edge="1" parent="1" source="qcW9sYDhVfVx4ufNbn1A-44" target="qcW9sYDhVfVx4ufNbn1A-51">
          <mxGeometry relative="1" as="geometry">
            <mxPoint x="260" y="1750" as="targetPoint" />
            <Array as="points">
              <mxPoint x="470" y="1900" />
              <mxPoint x="260" y="1900" />
            </Array>
          </mxGeometry>
        </mxCell>
        <mxCell id="qcW9sYDhVfVx4ufNbn1A-64" value="失败3次" style="edgeLabel;html=1;align=center;verticalAlign=middle;resizable=0;points=[];fontColor=#1A1A1A;" vertex="1" connectable="0" parent="qcW9sYDhVfVx4ufNbn1A-62">
          <mxGeometry x="-0.3459" y="-3" relative="1" as="geometry">
            <mxPoint as="offset" />
          </mxGeometry>
        </mxCell>
        <mxCell id="qcW9sYDhVfVx4ufNbn1A-44" value="是否成功上报" style="rhombus;whiteSpace=wrap;html=1;rounded=1;fontColor=#1A1A1A;strokeColor=#D0CEE2;strokeWidth=2;fillColor=#5D7F99;arcSize=14;" vertex="1" parent="1">
          <mxGeometry x="430" y="1810" width="80" height="80" as="geometry" />
        </mxCell>
        <mxCell id="qcW9sYDhVfVx4ufNbn1A-54" value="" style="edgeStyle=orthogonalEdgeStyle;curved=0;rounded=1;sketch=0;orthogonalLoop=1;jettySize=auto;html=1;fontColor=#1A1A1A;strokeColor=#736CA8;" edge="1" parent="1" source="qcW9sYDhVfVx4ufNbn1A-51" target="qcW9sYDhVfVx4ufNbn1A-53">
          <mxGeometry relative="1" as="geometry" />
        </mxCell>
        <mxCell id="qcW9sYDhVfVx4ufNbn1A-58" style="edgeStyle=orthogonalEdgeStyle;curved=0;rounded=1;sketch=0;orthogonalLoop=1;jettySize=auto;html=1;fontColor=#1A1A1A;strokeColor=#736CA8;" edge="1" parent="1" source="qcW9sYDhVfVx4ufNbn1A-51" target="qcW9sYDhVfVx4ufNbn1A-37">
          <mxGeometry relative="1" as="geometry" />
        </mxCell>
        <mxCell id="qcW9sYDhVfVx4ufNbn1A-51" value="记录操作" style="whiteSpace=wrap;html=1;rounded=1;fontColor=#1A1A1A;strokeColor=#D0CEE2;strokeWidth=2;fillColor=#5D7F99;arcSize=14;" vertex="1" parent="1">
          <mxGeometry x="200" y="1680" width="120" height="60" as="geometry" />
        </mxCell>
        <mxCell id="qcW9sYDhVfVx4ufNbn1A-53" value="结束流程" style="ellipse;whiteSpace=wrap;html=1;rounded=1;fontColor=#1A1A1A;strokeColor=#D0CEE2;strokeWidth=2;fillColor=#5D7F99;arcSize=14;" vertex="1" parent="1">
          <mxGeometry x="30" y="1680" width="120" height="60" as="geometry" />
        </mxCell>
        <mxCell id="qcW9sYDhVfVx4ufNbn1A-65" value="监控数据上报工作流程" style="text;html=1;align=center;verticalAlign=middle;resizable=0;points=[];autosize=1;strokeColor=none;fontColor=#1A1A1A;fontSize=35;" vertex="1" parent="1">
          <mxGeometry x="285" y="1280" width="370" height="50" as="geometry" />
        </mxCell>
        <mxCell id="qcW9sYDhVfVx4ufNbn1A-66" value="引擎工作流程" style="text;html=1;align=center;verticalAlign=middle;resizable=0;points=[];autosize=1;strokeColor=none;fontColor=#1A1A1A;fontSize=35;" vertex="1" parent="1">
          <mxGeometry x="298" y="50" width="230" height="50" as="geometry" />
        </mxCell>
      </root>
    </mxGraphModel>
  </diagram>
</mxfile>
